<svg width="50" height="39" viewBox="0 0 50 39" fill="none" xmlns="http://www.w3.org/2000/svg">
<rect x="0.5" y="0.5" width="49" height="38" stroke="#BC1D31"/>
<path d="M21.3354 20.095H18.1404V23.335H16.8654V20.095H13.6854V18.94H16.8654V15.685H18.1404V18.94H21.3354V20.095Z" fill="#BC1D31"/>
<path d="M27.5042 28C27.0913 28 26.738 27.8435 26.4442 27.5304C26.1504 27.2173 26.0033 26.8405 26.0028 26.4C26.0028 25.96 26.1499 25.5835 26.4442 25.2704C26.7385 24.9573 27.0918 24.8005 27.5042 24.8C27.917 24.8 28.2706 24.9568 28.5649 25.2704C28.8592 25.584 29.006 25.9605 29.0055 26.4C29.0055 26.84 28.8587 27.2168 28.5649 27.5304C28.2711 27.844 27.9175 28.0005 27.5042 28ZM35.0111 28C34.5982 28 34.2449 27.8435 33.9511 27.5304C33.6573 27.2173 33.5102 26.8405 33.5097 26.4C33.5097 25.96 33.6568 25.5835 33.9511 25.2704C34.2454 24.9573 34.5987 24.8005 35.0111 24.8C35.424 24.8 35.7776 24.9568 36.0718 25.2704C36.3661 25.584 36.513 25.9605 36.5125 26.4C36.5125 26.84 36.3656 27.2168 36.0718 27.5304C35.7781 27.844 35.4245 28.0005 35.0111 28ZM26.8661 15.2L28.6677 19.2H33.9226L35.987 15.2H26.8661ZM26.1529 13.6H37.2256C37.5134 13.6 37.7324 13.7368 37.8825 14.0104C38.0326 14.284 38.0389 14.5605 37.9013 14.84L35.2363 19.96C35.0987 20.2267 34.9143 20.4333 34.683 20.58C34.4518 20.7267 34.1983 20.8 33.9226 20.8H28.3299L27.5042 22.4H36.5125V24H27.5042C26.9411 24 26.5157 23.7368 26.228 23.2104C25.9402 22.684 25.9277 22.1605 26.1904 21.64L27.2039 19.68L24.5014 13.6H23V12H25.4398L26.1529 13.6Z" fill="#BC1D31"/>
</svg>
