<svg width="80" height="80" viewBox="0 0 80 80" fill="none" xmlns="http://www.w3.org/2000/svg">
<path d="M79.8255 36.2966C79.5941 33.6223 78.8484 30.9865 78.2826 28.3443C78.0641 27.3221 77.3762 26.8078 76.5212 26.7114C75.1518 26.5571 73.9561 27.8428 74.4897 29.63C76.8555 37.5309 76.6883 45.4125 73.5768 53.0499C68.4274 65.6952 58.99 73.2875 45.5475 75.6211C37.3445 77.0483 29.4372 75.634 22.282 71.3589C9.24451 63.5801 3.16293 51.9056 4.15296 36.7852C4.6994 28.4536 8.15806 21.202 13.9503 15.1718C20.5719 8.26735 28.73 4.59011 38.2767 4.06296C42.4489 3.83152 46.5376 4.35225 50.5362 5.58014C51.8284 5.97229 52.9277 5.46442 53.2749 4.36511C53.6349 3.21436 53.0177 2.12148 51.6934 1.76147C50.1119 1.33718 48.5176 0.938594 46.9104 0.630015C45.4575 0.35358 43.9854 0.205719 42.5196 0H37.5181C36.0523 0.205719 34.5801 0.372866 33.1272 0.610729C17.544 3.22079 4.6994 15.2939 1.11217 30.7679C0.649302 32.7608 0.45644 34.818 0.135003 36.843C0.0964309 37.0745 0.0450011 37.2995 0 37.5245V42.526C0.0450011 42.7768 0.115717 43.0275 0.141432 43.2846C0.925737 52.2206 4.21082 60.1343 10.2667 66.7238C19.5176 76.7976 31.0765 81.1949 44.6797 79.7227C54.8371 78.6234 63.368 74.0782 70.0796 66.3959C77.6076 57.7943 80.8156 47.6626 79.8255 36.2837V36.2966Z" fill="#BC1D31"/>
<path d="M65.7858 36.0395C64.5964 36.1616 63.8443 37.1324 63.9857 38.4246C64.2493 40.7582 63.9664 43.0532 63.4586 45.3226C60.4178 58.9193 45.8374 67.0903 32.6521 62.603C21.7875 58.9065 15.0566 48.5884 16.4324 37.2095C17.6024 27.5664 22.9961 20.9834 31.9899 17.4219C35.095 16.194 38.3736 15.7376 41.7294 16.0719C42.8609 16.1812 43.7609 15.519 43.9216 14.5225C44.0888 13.5004 43.4395 12.4846 42.4045 12.1825C42.1537 12.1118 41.8902 12.0475 41.6394 12.0539C39.8715 12.1053 38.0844 12.0218 36.3422 12.2532C20.7911 14.3425 9.98438 29.0772 12.6394 44.5126C14.9602 58.0065 26.5319 67.8103 40.1737 67.971C42.2052 67.6881 44.2881 67.6046 46.2617 67.0967C57.9106 64.0945 65.0722 56.6757 67.5665 44.9047C68.0422 42.6675 67.9394 40.3017 67.9522 37.9874C67.9587 36.7274 66.9172 35.9174 65.7922 36.0331L65.7858 36.0395Z" fill="#BC1D31"/>
<path d="M52.1049 18.3669C52.1242 20.2441 52.0728 22.1213 52.1306 23.992C52.1499 24.7828 51.9313 25.3356 51.3592 25.9014C47.2834 29.9258 43.2397 33.9951 39.1896 38.0452C38.971 38.2638 38.7396 38.4824 38.5532 38.7331C37.7367 39.8324 38.2124 41.3432 39.511 41.7868C40.4561 42.1082 41.1697 41.716 41.819 41.0603C45.3162 37.5567 48.8134 34.0594 52.3171 30.5622C53.185 29.6943 53.9243 28.4986 54.9721 28.0807C56.0457 27.65 57.4279 27.9843 58.6815 27.9843V27.9329C59.6973 27.9329 60.713 27.92 61.7287 27.9329C62.5323 27.9457 63.1816 27.6821 63.7538 27.11C67.5724 23.2656 71.404 19.4341 75.2483 15.6154C75.9427 14.9275 76.2641 14.1561 75.8977 13.2175C75.5248 12.266 74.7341 11.9639 73.7569 11.9767C72.1947 11.996 70.6325 11.9446 69.0703 11.996C68.3118 12.0217 68.016 11.861 68.0546 11.0253C68.1318 9.46311 68.061 7.90093 68.0803 6.33875C68.0932 5.37444 67.8232 4.57085 66.8781 4.1787C65.9138 3.78012 65.1295 4.12084 64.4159 4.83443C60.6101 8.65952 56.7979 12.4718 52.9728 16.2711C52.3749 16.8626 52.1049 17.5312 52.1114 18.3605L52.1049 18.3669ZM56.1293 19.0291C56.1293 18.8491 56.2643 18.6369 56.3993 18.5019C58.8422 16.0461 61.2916 13.5968 63.7474 11.1474C63.8116 11.0832 63.9016 11.0382 64.0881 10.916C64.0881 11.951 64.0752 12.8768 64.0881 13.8025C64.1074 15.1461 64.8852 15.9304 66.2288 15.9497C67.1546 15.9626 68.0803 15.9497 69.1732 15.9497C68.8903 16.2647 68.7296 16.4511 68.556 16.6247C66.2931 18.8941 64.0366 21.1698 61.7416 23.407C61.4523 23.6899 60.9444 23.8828 60.533 23.902C59.0865 23.9599 57.6336 23.9278 56.1036 23.9278C56.1036 22.2434 56.0972 20.6298 56.1165 19.0226L56.1293 19.0291Z" fill="#BC1D31"/>
<path d="M34.4131 29.3988C36.1553 28.4409 38.026 27.978 40.0189 27.933C41.3175 27.9009 42.1597 27.0394 42.1404 25.908C42.1211 24.7444 41.1954 23.9086 39.8775 23.9536C39.0225 23.9858 38.161 24.0694 37.3189 24.2172C29.1994 25.6701 23.5678 33.031 24.2493 41.2726C24.9243 49.4693 31.8609 55.8273 40.1347 55.8337C48.6527 55.8401 55.6408 49.2057 56.0972 40.6812C56.1872 38.9776 55.4929 37.9683 54.1879 37.9104C52.915 37.8526 52.1628 38.7719 52.0857 40.4498C51.7899 47.2706 45.8305 52.4458 39.0161 51.79C33.8216 51.2886 29.5015 47.4699 28.4601 42.462C27.3608 37.1904 29.7394 31.9638 34.4067 29.3988H34.4131Z" fill="#BC1D31"/>
</svg>
