<svg width="33" height="40" viewBox="0 0 33 40" fill="none" xmlns="http://www.w3.org/2000/svg">
<path d="M23.667 5.58333H27.2503C28.2007 5.58333 29.1121 5.96086 29.7841 6.63287C30.4561 7.30487 30.8337 8.21631 30.8337 9.16667V34.25C30.8337 35.2004 30.4561 36.1118 29.7841 36.7838C29.1121 37.4558 28.2007 37.8333 27.2503 37.8333H5.75033C4.79997 37.8333 3.88853 37.4558 3.21653 36.7838C2.54452 36.1118 2.16699 35.2004 2.16699 34.25V9.16667C2.16699 8.21631 2.54452 7.30487 3.21653 6.63287C3.88853 5.96086 4.79997 5.58333 5.75033 5.58333H9.33366M16.5003 18.125H23.667M16.5003 27.0833H23.667M9.33366 18.125H9.35158M9.33366 27.0833H9.35158M11.1253 2H21.8753C22.8648 2 23.667 2.80216 23.667 3.79167V7.375C23.667 8.36451 22.8648 9.16667 21.8753 9.16667H11.1253C10.1358 9.16667 9.33366 8.36451 9.33366 7.375V3.79167C9.33366 2.80216 10.1358 2 11.1253 2Z" stroke="#BC1D31" stroke-width="3" stroke-linecap="round" stroke-linejoin="round"/>
</svg>
