<svg width="80" height="80" viewBox="0 0 80 80" fill="none" xmlns="http://www.w3.org/2000/svg">
<path d="M79.8697 40.8125C79.7428 40.9662 79.5958 41.1065 79.4889 41.2735C77.8789 43.7053 76.2555 46.1304 74.6855 48.5889C74.4316 48.9897 74.278 49.5442 74.298 50.0253C74.4116 52.8913 74.5653 55.7506 74.7657 58.61C74.8458 59.7658 74.4116 60.4606 73.3894 60.9616C70.8641 62.1909 68.3722 63.5003 65.8536 64.7429C65.279 65.0235 64.925 65.411 64.6444 65.9722C63.3884 68.5175 62.0723 71.0295 60.8163 73.5748C60.342 74.5435 59.6472 74.9444 58.5716 74.8776C55.5786 74.6771 52.5924 74.5101 49.5994 74.3698C49.272 74.3565 48.8912 74.5101 48.604 74.6905C46.1588 76.2805 43.7137 77.8705 41.3086 79.514C40.3533 80.162 39.5449 80.162 38.5962 79.514C36.278 77.924 33.8997 76.4141 31.5681 74.8375C31.0203 74.47 30.4992 74.3297 29.8311 74.3765C26.945 74.5836 24.059 74.7105 21.1662 74.8842C20.1842 74.9444 19.5562 74.5034 19.1219 73.6349C17.8125 71.0027 16.483 68.3772 15.1268 65.7717C14.9398 65.411 14.5924 65.0636 14.2316 64.8765C11.6462 63.527 9.04739 62.2042 6.43522 60.9215C5.46652 60.4472 5.05231 59.7658 5.11912 58.6902C5.30618 55.7506 5.46652 52.8111 5.59345 49.8716C5.61349 49.4641 5.47988 48.9897 5.25941 48.649C3.68276 46.1972 2.08607 43.7521 0.455973 41.3336C-0.145292 40.4384 -0.158653 39.6434 0.455973 38.7482C2.07939 36.3565 3.6694 33.9448 5.23269 31.513C5.47988 31.1322 5.62685 30.6044 5.60681 30.1501C5.48656 27.3108 5.34626 24.4782 5.13248 21.6455C5.03895 20.3695 5.49992 19.6079 6.649 19.0601C9.20772 17.8375 11.7264 16.5281 14.245 15.2187C14.6057 15.0316 14.9531 14.6842 15.1402 14.3302C16.483 11.7447 17.8058 9.14591 19.0885 6.52707C19.5762 5.53164 20.291 5.12412 21.4 5.20428C24.3663 5.41139 27.3325 5.56504 30.2988 5.70534C30.6261 5.7187 31.0136 5.58509 31.2942 5.40471C33.3519 4.07524 35.3895 2.71905 37.4338 1.36955C38.1219 0.888536 38.8234 0.447609 39.5248 0C39.8388 0 40.1528 0 40.4602 0C43.1926 1.8038 45.9183 3.61427 48.6574 5.40471C48.9046 5.56504 49.2253 5.71202 49.5059 5.69866C52.4988 5.55836 55.4851 5.39803 58.4781 5.21765C59.7875 5.13748 60.2618 5.37798 60.8497 6.54043C62.1591 9.11251 63.4418 11.6979 64.778 14.2567C64.9851 14.6575 65.3793 15.0383 65.7801 15.2521C68.3856 16.6083 71.0111 17.9244 73.6433 19.2405C74.4517 19.648 74.8726 20.256 74.8191 21.1712C74.6521 24.1375 74.4584 27.097 74.3247 30.0633C74.3047 30.5175 74.425 31.052 74.6655 31.4328C76.369 34.1118 78.1261 36.7507 79.8697 39.4096V40.8192V40.8125ZM8.78016 53.2587H8.77348C8.69999 54.7151 8.63986 56.1715 8.53965 57.6279C8.50625 58.0956 8.67326 58.316 9.08079 58.5165C11.5326 59.7257 13.9844 60.9282 16.3962 62.2109C16.9507 62.5049 17.4851 63.0326 17.7858 63.5871C19.0618 65.9722 20.271 68.3973 21.4602 70.8224C21.7074 71.3234 21.9813 71.4837 22.5291 71.4437C25.2081 71.27 27.887 71.143 30.566 70.9693C31.361 70.9159 32.0291 71.1096 32.6905 71.5572C34.9085 73.0604 37.1666 74.5101 39.3912 76.0133C39.8322 76.3139 40.1194 76.3072 40.5604 76.0133C42.785 74.5101 45.0431 73.0671 47.2611 71.5639C47.8958 71.1364 48.5438 70.9292 49.3054 70.976C52.0111 71.1497 54.7168 71.2766 57.4158 71.4503C57.9503 71.4837 58.2442 71.3501 58.4981 70.8357C59.6873 68.4039 60.8898 65.9788 62.1725 63.6005C62.4731 63.046 63.0076 62.5182 63.5621 62.2243C65.9471 60.9482 68.3722 59.739 70.7973 58.5499C71.3051 58.3027 71.4454 58.0154 71.4119 57.4743C71.2316 54.7218 71.0646 51.9627 70.971 49.2035C70.951 48.6223 71.1447 47.9542 71.4587 47.4665C72.9285 45.135 74.465 42.8435 76.0083 40.552C76.2622 40.1712 76.2755 39.9106 76.0083 39.5232C74.4784 37.2584 72.9552 34.9869 71.4988 32.6754C71.1648 32.141 70.9577 31.4194 70.9777 30.7915C71.0646 28.059 71.2383 25.3266 71.4119 22.6009C71.4454 22.0598 71.3117 21.7725 70.7973 21.5253C68.3655 20.3361 65.9404 19.1336 63.5621 17.8509C63.0076 17.5503 62.4731 17.0225 62.1725 16.4747C60.8898 14.0896 59.6873 11.6712 58.4981 9.23944C58.2509 8.72503 57.9637 8.58473 57.4225 8.61813C54.6901 8.79183 51.9644 8.97221 49.2319 9.05906C48.604 9.0791 47.8824 8.86532 47.348 8.53129C45.0565 7.09493 42.8051 5.58509 40.5604 4.06856C40.1261 3.77461 39.8388 3.75457 39.3912 4.0552C37.1532 5.57172 34.9018 7.08157 32.6036 8.51792C32.0692 8.85196 31.3476 9.07242 30.7197 9.05238C28.0407 8.97221 25.3617 8.79851 22.6827 8.61813C22.0214 8.57137 21.674 8.73171 21.3733 9.35969C20.2242 11.7514 19.0284 14.123 17.7791 16.4613C17.4785 17.0158 16.9507 17.5503 16.4029 17.8442C14.0646 19.1002 11.6863 20.276 9.30125 21.4451C8.74675 21.719 8.49957 22.013 8.54633 22.6744C8.74007 25.3467 8.85364 28.0323 9.02734 30.7046C9.07411 31.4462 8.89373 32.0675 8.47952 32.6821C6.96968 34.9268 5.49992 37.205 3.99008 39.4497C3.69612 39.8839 3.68276 40.1779 3.9834 40.6188C5.51328 42.8836 7.03649 45.155 8.4862 47.4732C8.80688 47.9876 8.98726 48.6824 8.99394 49.2904C9.0073 50.6132 8.86701 51.9426 8.79352 53.2654L8.78016 53.2587Z" fill="#BC1D31"/>
<path d="M39.9392 15.1252C53.6347 15.0717 64.8449 26.2553 64.8783 40.0042C64.9184 53.7131 53.7616 64.8832 39.9926 64.9367C26.3105 64.9901 15.0668 53.8467 15.0535 40.0577C15.0401 26.2352 26.1969 15.1586 39.9392 15.1252ZM61.5647 40.0243C61.5647 28.1526 51.8376 18.4388 39.9659 18.4522C28.0742 18.4656 18.3805 28.1593 18.3938 40.0376C18.4005 51.9293 28.1009 61.6163 39.9793 61.6097C51.871 61.603 61.5714 51.9026 61.5647 40.0243Z" fill="#BC1D31"/>
<path d="M37.1732 43.6519C40.7808 40.2447 44.6222 36.6171 48.477 33.0028C48.811 32.6888 49.2052 32.3682 49.6261 32.2412C50.3543 32.0208 51.0157 32.2546 51.4499 32.936C51.8641 33.5841 51.7973 34.2187 51.3497 34.82C51.1961 35.0271 51.0023 35.2075 50.8153 35.3879C46.6866 39.2827 42.5579 43.1776 38.4292 47.0658C37.1732 48.2482 36.3916 48.2215 35.1824 46.9789C33.1648 44.9079 31.1472 42.8435 29.1363 40.7658C28.9225 40.5454 28.7087 40.3115 28.5417 40.051C28.0941 39.3562 28.1943 38.5412 28.7756 37.9867C29.3568 37.4388 30.1718 37.3653 30.8466 37.8464C31.1205 38.0401 31.3476 38.3006 31.5948 38.5278C33.432 40.218 35.2759 41.9016 37.1799 43.6519H37.1732Z" fill="#BC1D31"/>
</svg>
