<svg width="72" height="80" viewBox="0 0 72 80" fill="none" xmlns="http://www.w3.org/2000/svg">
<path d="M35.7305 66.5869C34.9197 66.7372 34.4433 67.3802 34.4412 68.3698C34.435 71.5409 34.4684 74.712 34.4224 77.881C34.4078 78.8413 34.6899 79.5407 35.5341 80H36.4723C37.024 79.6388 37.5547 79.2484 37.5568 78.5031C37.5652 75.021 37.5798 71.5388 37.5485 68.0566C37.5401 67.088 36.6353 66.4178 35.7305 66.5869Z" fill="#BC1D31"/>
<path d="M71.488 38.8152C66.0529 31.5148 59.4686 25.5462 51.1707 21.6486C41.594 17.1519 31.8836 16.8909 22.1335 21.0829C13.2568 24.8991 6.30884 31.0972 0.57077 38.7484C-0.198207 39.7755 -0.187759 40.2202 0.587487 41.2702C4.88582 47.0947 10.0451 52.0132 16.2032 55.8419C22.2442 59.5976 28.7784 61.8104 35.5822 61.8752C39.985 61.8626 43.8989 61.1842 47.6644 59.7896C57.6443 56.0966 65.3216 49.4433 71.5925 41.0218C72.1734 40.241 72.1337 39.6857 71.4859 38.8152H71.488ZM68.1363 40.4769C62.8767 47.0613 56.7061 52.5142 48.9077 55.9338C39.8471 59.9086 30.8409 59.6497 21.9433 55.4098C14.6945 51.9547 8.87489 46.7482 3.91206 40.5166C3.63205 40.1638 3.55265 39.9154 3.87236 39.5125C9.19878 32.8425 15.4655 27.3499 23.3852 23.9304C27.4223 22.1872 31.6391 21.2373 36.8172 21.2415C42.5678 21.2854 48.4772 23.3292 53.975 26.6923C59.4832 30.0638 64.0971 34.427 68.0924 39.4728C68.3703 39.8235 68.456 40.0719 68.1321 40.4769H68.1363Z" fill="#BC1D31"/>
<path d="M36.019 13.4257C36.9384 13.4152 37.5569 12.7159 37.5632 11.6449C37.5736 10.0082 37.5653 8.37151 37.5653 6.73481C37.5653 5.09811 37.5715 3.4614 37.5653 1.8247C37.559 0.703644 36.9321 -0.0103252 35.9855 0.000112923C35.064 0.0105511 34.4434 0.70782 34.4413 1.78086C34.435 5.08141 34.4329 8.37986 34.4413 11.6804C34.4434 12.7367 35.0974 13.4382 36.019 13.4278V13.4257Z" fill="#BC1D31"/>
<path d="M11.6624 21.0121C11.8275 21.1749 12.0114 21.415 12.2057 21.4359C12.7177 21.4902 13.3237 21.605 13.7374 21.3921C14.1491 21.1812 14.3747 20.6008 14.6861 20.1771C14.4374 19.699 14.2995 19.3337 14.078 19.0289C13.8502 18.7178 13.5431 18.4631 13.2672 18.1875C11.3552 16.2774 9.44325 14.3672 7.52707 12.4591C7.05064 11.9852 6.43421 11.6888 5.84076 12.0457C5.40194 12.3088 4.91088 12.8223 4.84819 13.2816C4.78341 13.7472 5.09477 14.3985 5.45 14.768C7.48737 16.8828 9.58534 18.9412 11.6666 21.0121H11.6624Z" fill="#BC1D31"/>
<path d="M59.2909 21.6761C59.5166 21.532 60.0014 21.3274 60.3545 20.9872C61.8507 19.5446 63.3092 18.0603 64.7803 16.5906C65.4595 15.91 66.1699 15.2566 66.8031 14.5343C67.6515 13.5656 67.175 12.1189 65.9359 11.979C65.4866 11.9289 64.866 12.1314 64.54 12.4425C62.3313 14.5698 60.179 16.7555 58.0121 18.9267C57.8846 19.054 57.7697 19.2022 57.6819 19.3588C57.1177 20.3776 57.8491 21.6406 59.2888 21.6761H59.2909Z" fill="#BC1D31"/>
<path d="M13.1065 59.9548C12.6656 59.8921 12.0429 60.2074 11.6897 60.5497C9.55832 62.6061 7.47916 64.7187 5.38536 66.8168C5.23909 66.9629 5.02595 67.1279 5.00923 67.2991C4.95699 67.8126 4.82535 68.4138 5.03222 68.8293C5.23909 69.2447 5.81374 69.4764 6.29226 69.8376C6.81675 69.5078 7.28064 69.3136 7.61707 68.9879C9.16756 67.4869 10.6825 65.9525 12.2079 64.4265C12.8515 63.7835 13.5725 63.1927 14.0928 62.462C14.377 62.0633 14.5253 61.3389 14.3582 60.9067C14.1889 60.4746 13.5787 60.0216 13.1086 59.9548H13.1065Z" fill="#BC1D31"/>
<path d="M60.1977 60.4161C59.9031 60.1259 59.4559 59.9923 58.898 59.6875C58.4508 60.0841 57.9158 60.3889 57.6379 60.8482C57.2409 61.5017 57.5293 62.1509 58.0517 62.6749C60.1831 64.8064 62.3103 66.9441 64.4542 69.0651C65.2023 69.8042 66.0904 69.8355 66.7486 69.2071C67.4299 68.5578 67.4215 67.6288 66.6588 66.8585C64.519 64.6957 62.3688 62.5455 60.1956 60.4182L60.1977 60.4161Z" fill="#BC1D31"/>
<path d="M35.4899 25.9308C34.3197 25.9371 32.6042 26.2105 30.968 26.8744C30.151 27.2063 29.8083 27.9892 30.0548 28.7888C30.2951 29.5654 31.0537 29.9892 31.9167 29.8096C32.1695 29.7574 32.4119 29.651 32.6585 29.5716C39.3933 27.4402 46.3893 32.1457 46.9285 39.1685C47.3485 44.6485 43.5893 49.6024 38.1563 50.7256C32.8904 51.8153 27.493 48.7549 25.6876 43.6527C25.0481 41.849 24.929 40.0077 25.2028 38.1142C25.3616 37.0119 24.8141 36.2938 23.8842 36.1769C22.969 36.0621 22.2752 36.6696 22.1039 37.7364C20.5701 47.2205 28.8596 55.4583 38.3402 53.8717C45.4678 52.6775 50.6041 46.1516 50.0545 38.9827C49.4924 31.6509 43.4054 25.9642 35.4941 25.9287L35.4899 25.9308Z" fill="#BC1D31"/>
<path d="M42.2566 40.0409C42.2754 36.588 39.4753 33.7592 36.0274 33.7488C32.6067 33.7384 29.7837 36.5107 29.7481 39.9136C29.7126 43.3686 32.4981 46.2182 35.9376 46.2454C39.3917 46.2746 42.2377 43.4793 42.2566 40.0409ZM32.8763 40.0159C32.8658 38.2978 34.2638 36.8823 35.9815 36.8719C37.7012 36.8615 39.118 38.2581 39.1284 39.9741C39.1389 41.6902 37.7388 43.1077 36.0232 43.1181C34.3056 43.1285 32.8867 41.7298 32.8784 40.0138L32.8763 40.0159Z" fill="#BC1D31"/>
<path d="M26.6054 33.7407C27.4371 33.7469 28.1475 33.0664 28.1768 32.2355C28.206 31.3775 27.4935 30.6364 26.6305 30.628C25.7988 30.6197 25.0883 31.3023 25.0612 32.1332C25.0319 32.9954 25.7445 33.7344 26.6075 33.7407H26.6054Z" fill="#BC1D31"/>
</svg>
