<svg width="133" height="133" viewBox="0 0 133 133" fill="none" xmlns="http://www.w3.org/2000/svg">
<g filter="url(#filter0_d_28_1256)">
<path d="M66.5 107C87.2107 107 104 90.2107 104 69.5C104 48.7893 87.2107 32 66.5 32C45.7893 32 29 48.7893 29 69.5C29 90.2107 45.7893 107 66.5 107Z" fill="#0DC143"/>
</g>
<path d="M79.894 56.0241C76.7611 52.8946 72.5979 51.0099 68.1792 50.7207C63.7604 50.4315 59.3871 51.7575 55.873 54.452C52.3589 57.1465 49.9435 61.0259 49.0761 65.3683C48.2088 69.7108 48.9487 74.2204 51.158 78.0581L48.567 87.5161L58.247 84.9701C60.9237 86.4296 63.9242 87.1933 66.973 87.1911H66.981C70.6173 87.2486 74.1869 86.2119 77.2267 84.2155C80.2665 82.2192 82.6362 79.3553 84.0282 75.9955C85.4202 72.6357 85.7703 68.9351 85.0331 65.3739C84.2959 61.8126 82.5055 58.5552 79.894 56.0241ZM66.982 84.1191C64.262 84.1213 61.5915 83.3911 59.251 82.0051L58.7 81.6761L52.959 83.1811L54.489 77.5811L54.127 77.0051C52.9128 75.0058 52.1762 72.7534 51.9746 70.423C51.773 68.0926 52.1117 65.7471 52.9645 63.569C53.8173 61.3909 55.1611 59.4389 56.8914 57.8648C58.6217 56.2908 60.6918 55.1373 62.9407 54.4939C65.1896 53.8505 67.5566 53.7346 69.8575 54.1553C72.1585 54.5759 74.3314 55.5218 76.2071 56.9193C78.0829 58.3168 79.6109 60.1282 80.6724 62.2126C81.7338 64.297 82.3001 66.5982 82.327 68.9371C82.2841 72.9785 80.6484 76.8399 77.7753 79.6824C74.9022 82.525 71.0237 84.1193 66.982 84.1191ZM75.305 72.7531C74.853 72.5231 72.605 71.4211 72.188 71.2731C71.771 71.1251 71.464 71.0431 71.16 71.5031C70.856 71.9631 69.984 72.9831 69.712 73.2961C69.44 73.6091 69.177 73.6411 68.725 73.4111C66.044 72.0701 64.284 71.0181 62.516 67.9831C62.047 67.1771 62.985 67.2351 63.857 65.4911C63.9169 65.3648 63.9445 65.2256 63.9373 65.0859C63.9302 64.9463 63.8885 64.8107 63.816 64.6911C63.701 64.4611 62.788 62.2151 62.41 61.3031C62.04 60.4151 61.662 60.5381 61.382 60.5221C61.119 60.5061 60.815 60.5061 60.51 60.5061C60.2792 60.5125 60.0521 60.5661 59.8428 60.6636C59.6335 60.7611 59.4464 60.9005 59.293 61.0731C58.7768 61.5622 58.368 62.1533 58.0926 62.8089C57.8171 63.4644 57.6811 64.1701 57.693 64.8811C57.8436 66.6013 58.4893 68.2411 59.552 69.6021C59.782 69.9021 62.768 74.5121 67.352 76.4941C70.252 77.7441 71.382 77.8511 72.83 77.6371C73.71 77.5051 75.53 76.5371 75.906 75.4661C76.2036 74.7836 76.295 74.0289 76.169 73.2951C76.061 73.0901 75.757 72.9701 75.305 72.7531Z" fill="white"/>
<defs>
<filter id="filter0_d_28_1256" x="0" y="0" width="133" height="133" filterUnits="userSpaceOnUse" color-interpolation-filters="sRGB">
<feFlood flood-opacity="0" result="BackgroundImageFix"/>
<feColorMatrix in="SourceAlpha" type="matrix" values="0 0 0 0 0 0 0 0 0 0 0 0 0 0 0 0 0 0 127 0" result="hardAlpha"/>
<feOffset dy="-3"/>
<feGaussianBlur stdDeviation="14.5"/>
<feColorMatrix type="matrix" values="0 0 0 0 0 0 0 0 0 0 0 0 0 0 0 0 0 0 0.161 0"/>
<feBlend mode="normal" in2="BackgroundImageFix" result="effect1_dropShadow_28_1256"/>
<feBlend mode="normal" in="SourceGraphic" in2="effect1_dropShadow_28_1256" result="shape"/>
</filter>
</defs>
</svg>
